<svg width="2929" height="5835" viewBox="0 0 2929 5835" fill="none" xmlns="http://www.w3.org/2000/svg">
<rect width="2929" height="5835" fill="white"/>
<g filter="url(#filter0_dd_1_266)">
<rect x="107" y="1003" width="1180" height="880" rx="8" fill="white"/>
<g clip-path="url(#clip0_1_266)">
<path d="M624.783 1467.83H228V1604.76H624.783V1467.83Z" fill="#84B740"/>
<path d="M624.783 1281H228V1418.04H624.783V1281Z" fill="#259BD6"/>
<path d="M1021.57 1576.93L1019.8 1577.3C1013.67 1578.52 1011.43 1579.01 1006.96 1579.01C996.59 1579.01 984.337 1573.52 984.337 1547.64C984.337 1534.34 986.458 1516.65 1005.78 1516.65H1005.9C1009.2 1516.89 1012.97 1517.26 1020.03 1519.45L1021.57 1519.94V1576.93ZM1024.75 1447.94L1021.57 1448.55V1496.39L1018.74 1495.54L1017.91 1495.29C1014.73 1494.32 1007.43 1492.12 1000.36 1492.12C961.718 1492.12 953.589 1522.38 953.589 1547.77C953.589 1582.55 972.439 1602.56 1005.31 1602.56C1019.21 1602.56 1029.46 1601.09 1039.83 1597.56C1049.37 1594.38 1052.78 1589.87 1052.78 1580.23V1442.94C1043.6 1444.65 1034.05 1446.36 1024.75 1447.94Z" fill="#27292D"/>
<path d="M1136.43 1577.79L1134.78 1578.27L1128.89 1579.86C1123.35 1581.33 1118.4 1582.18 1114.64 1582.18C1105.56 1582.18 1100.14 1577.54 1100.14 1569.61C1100.14 1564.49 1102.38 1555.82 1117.23 1555.82H1136.43V1577.79ZM1122.88 1491.51C1110.98 1491.51 1098.73 1493.71 1083.53 1498.59L1073.64 1501.64L1076.94 1524.82L1086.6 1521.53C1096.73 1518.11 1109.33 1515.92 1118.76 1515.92C1123 1515.92 1135.96 1515.92 1135.96 1530.44V1536.78H1117.93C1085.06 1536.78 1069.87 1547.64 1069.87 1570.95C1069.87 1590.84 1083.89 1602.8 1107.45 1602.8C1114.75 1602.8 1124.88 1601.34 1133.6 1599.14L1134.07 1599.02L1134.54 1599.14L1137.49 1599.63C1146.68 1601.34 1156.22 1603.05 1165.53 1604.88V1528.73C1165.53 1504.08 1151.16 1491.51 1122.88 1491.51Z" fill="#27292D"/>
<path d="M907.526 1577.79L905.877 1578.27L899.986 1579.86C894.449 1581.33 889.619 1582.18 885.731 1582.18C876.66 1582.18 871.24 1577.54 871.24 1569.61C871.24 1564.49 873.479 1555.82 888.205 1555.82H907.408L907.526 1577.79ZM894.096 1491.51C882.079 1491.51 869.945 1493.71 854.747 1498.59L844.851 1501.64L848.15 1524.82L857.81 1521.53C867.942 1518.11 880.547 1515.92 889.972 1515.92C894.213 1515.92 907.172 1515.92 907.172 1530.44V1536.78H889.148C856.279 1536.78 840.963 1547.64 840.963 1570.95C840.963 1590.84 854.983 1602.8 878.662 1602.8C885.967 1602.8 896.098 1601.34 904.816 1599.14L905.287 1599.02L905.759 1599.14L908.586 1599.63C917.893 1601.34 927.318 1603.05 936.625 1605V1528.85C936.743 1503.96 922.37 1491.51 894.096 1491.51Z" fill="#27292D"/>
<path d="M783.471 1491.75C768.51 1491.75 756.14 1496.88 751.545 1499.07L750.367 1499.69L749.307 1498.83C742.945 1494.07 733.638 1491.63 720.679 1491.63C709.251 1491.63 698.531 1493.34 686.868 1496.88C676.854 1500.05 672.966 1505.05 672.966 1514.45V1601.46H704.303V1521.04L705.835 1520.55C712.197 1518.36 715.967 1517.99 719.619 1517.99C728.69 1517.99 733.285 1522.99 733.285 1532.76V1601.58H764.151V1531.41C764.151 1527.26 763.326 1524.82 763.208 1524.34L762.148 1522.26L764.269 1521.29C768.981 1519.09 774.165 1517.99 779.584 1517.99C785.828 1517.99 793.25 1520.55 793.25 1532.76V1601.58H823.998V1529.58C823.998 1504.08 810.803 1491.75 783.471 1491.75Z" fill="#27292D"/>
<path d="M1113.34 1370.33C1108.74 1370.33 1101.09 1369.84 1095.08 1368.62L1093.31 1368.25V1321.27C1093.31 1317.37 1092.6 1314.93 1092.49 1314.56L1091.54 1312.61L1093.55 1311.75C1094.02 1311.51 1094.49 1311.39 1095.08 1311.14L1095.43 1310.9C1096.14 1310.65 1096.84 1310.41 1097.55 1310.17C1097.91 1310.04 1098.14 1309.92 1098.38 1309.92C1105.33 1307.97 1111.69 1308.21 1114.52 1307.97H1114.63C1133.84 1307.97 1136.08 1325.66 1136.08 1338.97C1135.96 1364.84 1123.59 1370.33 1113.34 1370.33ZM1113.22 1281C1112.98 1281 1112.63 1281 1112.4 1281C1094.37 1281 1075.87 1286.13 1069.28 1296.13C1065.74 1301.01 1063.74 1307.12 1063.62 1314.32V1362.76C1063.62 1366.91 1062.8 1368.5 1062.68 1368.86L1061.62 1370.94H1004.72V1337.26H1004.6C1003.89 1301.75 983.63 1282.22 954.295 1282.22H950.879H925.668C924.49 1290.88 923.547 1296.99 922.369 1305.65H950.879C965.841 1305.65 973.734 1318.83 973.734 1339.09V1373.01L971.731 1371.92C971.378 1371.79 968.904 1370.94 965.016 1370.94H915.772C914.829 1377.41 913.651 1385.83 912.355 1394.25H1063.74C1068.92 1393.15 1074.93 1392.17 1080.12 1391.32C1087.77 1395.22 1102.03 1397.3 1111.81 1397.3C1144.68 1397.3 1166 1374.48 1166 1339.33C1165.88 1304.55 1145.26 1281.73 1113.22 1281Z" fill="#27292D"/>
<path d="M847.795 1408.53H849.209C882.078 1408.53 897.393 1397.3 897.393 1369.6C897.393 1349.71 883.374 1333.84 859.812 1333.84H829.535C820.464 1333.84 815.044 1328.47 815.044 1319.44C815.044 1313.34 817.283 1305.77 832.127 1305.77H898.336C899.75 1296.87 900.456 1291.25 901.752 1282.34H832.951C800.907 1282.34 784.767 1296.26 784.767 1319.44C784.767 1342.38 798.787 1354.34 822.349 1354.34H852.626C861.697 1354.34 867.116 1361.79 867.116 1369.6C867.116 1374.72 864.878 1385.34 850.152 1385.34H845.086L748.129 1385.1H730.457C715.495 1385.1 705.01 1376.31 705.01 1355.93V1341.9C705.01 1320.66 713.139 1307.48 730.457 1307.48H759.203C760.499 1298.45 761.323 1292.72 762.501 1284.17H726.687H723.271C693.936 1284.17 673.673 1304.55 672.966 1340.07V1341.41V1355.93C673.673 1391.44 693.936 1408.4 723.271 1408.4H726.687H751.898L804.442 1408.53H835.779H847.795Z" fill="#27292D"/>
</g>
</g>
<g filter="url(#filter1_dd_1_266)">
<rect x="1641" y="1003" width="1180" height="880" rx="8" fill="white"/>
<path d="M2102.91 1342.54H2047.42C2043.63 1342.54 2040.4 1346.04 2039.8 1350.8L2017.36 1531.48C2016.92 1535.05 2019.09 1538.26 2021.94 1538.26H2048.43C2052.22 1538.26 2055.45 1534.76 2056.05 1529.99L2062.1 1481.26C2062.68 1476.48 2065.92 1472.98 2069.71 1472.98H2087.27C2123.82 1472.98 2144.91 1450.52 2150.42 1406.01C2152.91 1386.54 2150.53 1371.24 2143.35 1360.52C2135.46 1348.76 2121.48 1342.54 2102.91 1342.54ZM2109.31 1408.53C2106.27 1433.81 2091.06 1433.81 2076.35 1433.81H2067.98L2073.85 1386.59C2074.2 1383.74 2076.15 1381.64 2078.42 1381.64H2082.26C2092.28 1381.64 2101.73 1381.64 2106.61 1388.89C2109.53 1393.22 2110.42 1399.64 2109.31 1408.53Z" fill="#253B80"/>
<path d="M2268.76 1407.71H2242.19C2239.92 1407.71 2237.97 1409.81 2237.62 1412.67L2236.44 1422.1L2234.59 1418.68C2228.83 1408.08 2216.01 1404.54 2203.21 1404.54C2173.84 1404.54 2148.77 1432.78 2143.88 1472.39C2141.34 1492.16 2144.95 1511.05 2153.78 1524.23C2161.88 1536.34 2173.46 1541.39 2187.25 1541.39C2210.9 1541.39 2224.02 1522.08 2224.02 1522.08L2222.84 1531.45C2222.39 1535.04 2224.57 1538.25 2227.4 1538.25H2251.33C2255.14 1538.25 2258.35 1534.75 2258.95 1529.98L2273.31 1414.49C2273.76 1410.94 2271.6 1407.71 2268.76 1407.71ZM2231.72 1473.38C2229.16 1492.66 2217.11 1505.6 2201.75 1505.6C2194.03 1505.6 2187.86 1502.46 2183.9 1496.5C2179.98 1490.59 2178.49 1482.17 2179.73 1472.8C2182.13 1453.68 2194.38 1440.32 2209.51 1440.32C2217.05 1440.32 2223.19 1443.5 2227.23 1449.51C2231.28 1455.58 2232.88 1464.05 2231.72 1473.38Z" fill="#253B80"/>
<path d="M2410.26 1407.71H2383.56C2381.02 1407.71 2378.62 1409.32 2377.18 1412.01L2340.35 1480.89L2324.74 1414.7C2323.76 1410.56 2320.75 1407.71 2317.35 1407.71H2291.11C2287.92 1407.71 2285.71 1411.67 2286.72 1415.48L2316.13 1525.08L2288.48 1574.65C2286.31 1578.56 2288.5 1583.92 2292.25 1583.92H2318.92C2321.45 1583.92 2323.82 1582.36 2325.26 1579.72L2414.06 1416.93C2416.19 1413.04 2414 1407.71 2410.26 1407.71Z" fill="#253B80"/>
<path d="M2498.66 1342.54H2443.17C2439.38 1342.54 2436.15 1346.04 2435.56 1350.8L2413.12 1531.48C2412.67 1535.05 2414.85 1538.26 2417.68 1538.26H2446.16C2448.8 1538.26 2451.06 1535.81 2451.48 1532.47L2457.85 1481.26C2458.43 1476.48 2461.67 1472.98 2465.46 1472.98H2483.01C2519.57 1472.98 2540.65 1450.52 2546.17 1406.01C2548.66 1386.54 2546.27 1371.24 2539.09 1360.52C2531.21 1348.76 2517.23 1342.54 2498.66 1342.54ZM2505.06 1408.53C2502.04 1433.81 2486.83 1433.81 2472.11 1433.81H2463.74L2469.63 1386.59C2469.97 1383.74 2471.91 1381.64 2474.19 1381.64H2478.02C2488.03 1381.64 2497.49 1381.64 2502.38 1388.89C2505.29 1393.22 2506.17 1399.64 2505.06 1408.53Z" fill="#179BD7"/>
<path d="M2664.5 1407.71H2637.95C2635.67 1407.71 2633.73 1409.81 2633.39 1412.67L2632.21 1422.1L2630.35 1418.68C2624.6 1408.08 2611.78 1404.54 2598.98 1404.54C2569.62 1404.54 2544.55 1432.78 2539.66 1472.39C2537.13 1492.16 2540.73 1511.05 2549.55 1524.23C2557.67 1536.34 2569.23 1541.39 2583.02 1541.39C2606.68 1541.39 2619.79 1522.08 2619.79 1522.08L2618.61 1531.45C2618.16 1535.04 2620.34 1538.25 2623.19 1538.25H2647.11C2650.9 1538.25 2654.13 1534.75 2654.72 1529.98L2669.09 1414.49C2669.53 1410.94 2667.35 1407.71 2664.5 1407.71ZM2627.47 1473.38C2624.92 1492.66 2612.86 1505.6 2597.49 1505.6C2589.79 1505.6 2583.61 1502.46 2579.65 1496.5C2575.72 1490.59 2574.25 1482.17 2575.48 1472.8C2577.89 1453.68 2590.13 1440.32 2605.26 1440.32C2612.8 1440.32 2618.93 1443.5 2622.97 1449.51C2627.04 1455.58 2628.65 1464.05 2627.47 1473.38Z" fill="#179BD7"/>
<path d="M2695.83 1347.49L2673.06 1531.48C2672.61 1535.05 2674.78 1538.26 2677.61 1538.26H2700.51C2704.31 1538.26 2707.54 1534.76 2708.13 1529.99L2730.58 1349.31C2731.03 1345.75 2728.86 1342.52 2726.02 1342.52H2700.39C2698.12 1342.54 2696.18 1344.64 2695.83 1347.49Z" fill="#179BD7"/>
<path d="M1786.95 1573.37L1791.19 1539.15L1781.74 1538.87H1736.61L1767.97 1286.31C1768.07 1285.55 1768.39 1284.84 1768.85 1284.33C1769.31 1283.83 1769.9 1283.55 1770.52 1283.55H1846.62C1871.88 1283.55 1889.32 1290.23 1898.42 1303.4C1902.69 1309.59 1905.41 1316.05 1906.72 1323.16C1908.1 1330.61 1908.12 1339.53 1906.78 1350.4L1906.68 1351.19V1358.15L1910.95 1361.22C1914.54 1363.65 1917.4 1366.42 1919.59 1369.59C1923.24 1374.88 1925.6 1381.59 1926.6 1389.56C1927.63 1397.75 1927.29 1407.5 1925.6 1418.53C1923.65 1431.22 1920.5 1442.28 1916.25 1451.32C1912.34 1459.66 1907.36 1466.57 1901.45 1471.93C1895.8 1477.02 1889.09 1480.88 1881.5 1483.36C1874.15 1485.79 1865.77 1487.01 1856.58 1487.01H1850.66C1846.42 1487.01 1842.31 1488.95 1839.08 1492.42C1835.85 1495.97 1833.7 1500.81 1833.05 1506.11L1832.6 1509.19L1825.1 1569.51L1824.76 1571.73C1824.67 1572.43 1824.52 1572.78 1824.29 1573.01C1824.09 1573.23 1823.8 1573.37 1823.51 1573.37H1786.95Z" fill="#253B80"/>
<path d="M1914.99 1351.99C1914.76 1353.84 1914.5 1355.72 1914.21 1357.66C1904.17 1423.09 1869.84 1445.7 1825.99 1445.7H1803.66C1798.3 1445.7 1793.78 1450.64 1792.94 1457.36L1781.51 1549.43L1778.27 1575.53C1777.73 1579.94 1780.41 1583.91 1783.91 1583.91H1823.51C1828.2 1583.91 1832.19 1579.59 1832.92 1573.71L1833.31 1571.16L1840.77 1511.07L1841.25 1507.77C1841.98 1501.88 1845.97 1497.55 1850.66 1497.55H1856.58C1894.95 1497.55 1924.98 1477.77 1933.76 1420.53C1937.43 1396.62 1935.53 1376.65 1925.82 1362.61C1922.89 1358.37 1919.24 1354.86 1914.99 1351.99Z" fill="#179BD7"/>
<path d="M1904.49 1346.68C1902.95 1346.11 1901.37 1345.6 1899.75 1345.13C1898.12 1344.68 1896.45 1344.28 1894.73 1343.93C1888.71 1342.69 1882.11 1342.1 1875.05 1342.1H1815.4C1813.93 1342.1 1812.54 1342.52 1811.29 1343.29C1808.54 1344.97 1806.49 1348.27 1806 1352.32L1793.31 1454.38L1792.94 1457.36C1793.78 1450.64 1798.3 1445.7 1803.66 1445.7H1825.99C1869.84 1445.7 1904.17 1423.08 1914.21 1357.66C1914.51 1355.72 1914.76 1353.84 1914.99 1351.99C1912.45 1350.28 1909.7 1348.82 1906.73 1347.57C1906 1347.26 1905.25 1346.97 1904.49 1346.68Z" fill="#222D65"/>
<path d="M1806 1352.32C1806.49 1348.27 1808.54 1344.97 1811.29 1343.3C1812.54 1342.54 1813.93 1342.11 1815.4 1342.11H1875.05C1882.11 1342.11 1888.71 1342.7 1894.73 1343.94C1896.45 1344.29 1898.12 1344.69 1899.75 1345.14C1901.37 1345.61 1902.95 1346.12 1904.49 1346.69C1905.25 1346.98 1906.01 1347.27 1906.74 1347.57C1909.7 1348.82 1912.45 1350.29 1914.99 1351.99C1917.98 1327.81 1914.97 1311.35 1904.67 1296.44C1893.32 1280.03 1872.84 1273 1846.63 1273H1770.53C1765.17 1273 1760.61 1277.95 1759.78 1284.67L1728.08 1539.83C1727.46 1544.88 1730.52 1549.43 1734.53 1549.43H1781.51L1793.31 1454.38L1806 1352.32Z" fill="#253B80"/>
</g>
<g filter="url(#filter2_dd_1_266)">
<rect x="107" y="2482" width="1180" height="874" rx="8" fill="white"/>
<g clip-path="url(#clip1_1_266)">
<path d="M632.466 3135.57H554.051L603.097 2703.83H681.508L632.466 3135.57Z" fill="#00579F"/>
<path d="M916.726 2714.38C901.259 2705.64 876.728 2696 846.394 2696C768.957 2696 714.427 2754.79 714.092 2838.83C713.449 2900.84 753.135 2935.29 782.816 2955.96C813.154 2977.09 823.466 2990.88 823.466 3009.71C823.158 3038.64 798.952 3051.97 776.376 3051.97C745.069 3051.97 728.294 3045.1 702.802 3029L692.476 3022.11L681.503 3119.02C699.895 3130.95 733.778 3141.54 768.957 3142C851.236 3142 904.801 3084.12 905.436 2994.56C905.749 2945.41 884.794 2907.75 839.615 2876.98C812.189 2857.22 795.393 2843.9 795.393 2823.69C795.715 2805.31 809.599 2786.49 840.558 2786.49C866.051 2785.57 884.781 2794.3 898.97 2803.02L906.062 2807.61L916.726 2714.38Z" fill="#00579F"/>
<path d="M1020.95 2982.62C1027.4 2957.81 1052.25 2861.82 1052.25 2861.82C1051.93 2862.74 1058.7 2836.56 1062.57 2820.48L1068.05 2857.69C1068.05 2857.69 1082.9 2961.03 1086.12 2982.62C1073.87 2982.62 1036.43 2982.62 1020.95 2982.62ZM1117.74 2703.83H1057.09C1038.38 2703.83 1024.17 2711.63 1016.1 2739.65L899.626 3135.56H981.904C981.904 3135.56 995.45 3082.27 998.362 3070.8C1007.39 3070.8 1087.43 3070.8 1099.04 3070.8C1101.29 3085.95 1108.4 3135.56 1108.4 3135.56H1181L1117.74 2703.83Z" fill="#00579F"/>
<path d="M488.556 2703.83L411.762 2998.23L403.371 2938.52C389.173 2869.63 344.646 2794.77 294.957 2757.55L365.297 3135.11H448.219L571.473 2703.83H488.556Z" fill="#00579F"/>
<path d="M340.452 2703.83H214.291L213 2712.55C311.414 2748.38 376.592 2834.74 403.37 2938.54L375.944 2740.12C371.429 2712.54 357.553 2704.74 340.452 2703.83Z" fill="#FAA61A"/>
</g>
</g>
<g filter="url(#filter3_dd_1_266)">
<rect x="107" y="3958" width="1180" height="874" rx="8" fill="white"/>
<g clip-path="url(#clip2_1_266)">
<path d="M414.706 4237.66C404.276 4251.99 387.588 4263.28 370.901 4261.67C368.815 4242.3 376.985 4221.73 386.546 4209.02C396.975 4194.3 415.227 4183.81 430.003 4183C431.741 4203.17 424.962 4222.94 414.706 4237.66ZM429.829 4265.5C405.667 4263.89 384.981 4281.44 373.508 4281.44C361.862 4281.44 344.305 4266.31 325.184 4266.71C300.327 4267.11 277.208 4283.45 264.518 4309.47C238.444 4361.52 257.739 4438.57 282.944 4480.93C295.286 4501.91 310.061 4524.9 329.53 4524.1C347.956 4523.29 355.256 4510.18 377.506 4510.18C399.93 4510.18 406.362 4524.1 425.831 4523.69C445.995 4523.29 458.684 4502.71 471.026 4481.74C485.106 4457.93 490.842 4434.74 491.19 4433.53C490.842 4433.12 452.253 4415.98 451.905 4364.34C451.557 4321.17 482.325 4300.6 483.715 4299.39C466.333 4269.53 439.215 4266.31 429.829 4265.5ZM569.413 4207V4521.47H611.479V4413.96H669.712C722.903 4413.96 760.276 4371.6 760.276 4310.28C760.276 4248.96 723.598 4207 671.102 4207H569.413ZM611.479 4248.15H659.977C696.481 4248.15 717.34 4270.75 717.34 4310.48C717.34 4350.22 696.481 4373.01 659.803 4373.01H611.479V4248.15ZM837.108 4523.89C863.53 4523.89 888.04 4508.36 899.165 4483.75H900.034V4521.47H938.971V4364.94C938.971 4319.56 907.682 4290.31 859.532 4290.31C814.858 4290.31 781.831 4319.96 780.614 4360.71H818.508C821.637 4341.34 837.108 4328.64 858.315 4328.64C884.042 4328.64 898.469 4342.55 898.469 4368.17V4385.52L845.973 4389.15C797.128 4392.58 770.706 4415.78 770.706 4456.12C770.706 4496.86 797.997 4523.89 837.108 4523.89ZM848.407 4486.58C825.983 4486.58 811.729 4474.07 811.729 4454.91C811.729 4435.14 825.462 4423.64 851.71 4421.83L898.469 4418.4V4436.15C898.469 4465.6 876.915 4486.58 848.407 4486.58ZM990.946 4607C1031.97 4607 1051.26 4588.85 1068.13 4533.78L1142 4293.34H1099.24L1049.7 4479.11H1048.83L999.29 4293.34H955.311L1026.58 4522.28L1022.76 4536.2C1016.32 4559.8 1005.9 4568.88 987.296 4568.88C983.993 4568.88 977.561 4568.47 974.954 4568.07V4605.79C977.387 4606.6 987.817 4607 990.946 4607Z" fill="black"/>
</g>
</g>
<g filter="url(#filter4_dd_1_266)">
<rect x="1641" y="3958" width="1180" height="874" rx="8" fill="white"/>
<g clip-path="url(#clip3_1_266)">
<path d="M2000.86 4655.85V4621.08C2000.86 4607.77 1992.19 4599.06 1977.3 4599.06C1969.86 4599.06 1961.77 4601.36 1956.2 4608.92C1951.87 4602.57 1945.65 4599.06 1936.33 4599.06C1930.12 4599.06 1923.9 4600.82 1918.99 4607.17V4600.21H1905.98V4655.85H1918.99V4625.13C1918.99 4615.27 1924.56 4610.61 1933.23 4610.61C1941.9 4610.61 1946.23 4615.81 1946.23 4625.13V4655.85H1959.24V4625.13C1959.24 4615.27 1965.45 4610.61 1973.47 4610.61C1982.14 4610.61 1986.48 4615.81 1986.48 4625.13V4655.85H2000.86ZM2193.79 4600.21H2172.69V4583.4H2159.68V4600.21H2147.9V4611.22H2159.68V4636.74C2159.68 4649.5 2165.25 4657 2180.13 4657C2185.69 4657 2191.91 4655.24 2196.24 4652.95L2192.49 4642.48C2188.73 4644.78 2184.39 4645.39 2181.29 4645.39C2175.07 4645.39 2172.62 4641.87 2172.62 4636.13V4611.22H2193.72V4600.21H2193.79ZM2304.2 4599C2296.76 4599 2291.77 4602.51 2288.66 4607.1V4600.14H2275.66V4655.78H2288.66V4624.45C2288.66 4615.2 2293 4609.93 2301.09 4609.93C2303.55 4609.93 2306.65 4610.54 2309.18 4611.08L2312.94 4599.47C2310.34 4599 2306.65 4599 2304.2 4599ZM2137.35 4604.8C2131.14 4600.75 2122.47 4599 2113.15 4599C2098.26 4599 2088.36 4605.95 2088.36 4616.96C2088.36 4626.21 2095.81 4631.48 2108.81 4633.16L2115.03 4633.77C2121.82 4634.92 2125.58 4636.67 2125.58 4639.58C2125.58 4643.63 2120.59 4646.53 2111.92 4646.53C2103.25 4646.53 2096.38 4643.63 2092.05 4640.73L2085.83 4649.98C2092.63 4654.64 2101.95 4656.93 2111.27 4656.93C2128.61 4656.93 2138.58 4649.37 2138.58 4638.97C2138.58 4629.11 2130.49 4623.91 2118.13 4622.16L2111.92 4621.55C2106.36 4620.94 2102.02 4619.79 2102.02 4616.35C2102.02 4612.3 2106.36 4610 2113.22 4610C2120.66 4610 2128.11 4612.91 2131.86 4614.66L2137.35 4604.8ZM2483.4 4599C2475.95 4599 2470.97 4602.51 2467.86 4607.1V4600.14H2454.86V4655.78H2467.86V4624.45C2467.86 4615.2 2472.2 4609.93 2480.29 4609.93C2482.75 4609.93 2485.85 4610.54 2488.38 4611.08L2492.14 4599.6C2489.61 4599 2485.93 4599 2483.4 4599ZM2317.2 4628.03C2317.2 4644.85 2329.63 4657 2348.85 4657C2357.52 4657 2363.74 4655.24 2369.95 4650.65L2363.74 4640.79C2358.75 4644.31 2353.84 4645.99 2348.2 4645.99C2337.65 4645.99 2330.21 4639.04 2330.21 4628.03C2330.21 4617.56 2337.65 4610.61 2348.2 4610.07C2353.77 4610.07 2358.75 4611.83 2363.74 4615.27L2369.95 4605.41C2363.74 4600.75 2357.52 4599.06 2348.85 4599.06C2329.63 4599 2317.2 4611.22 2317.2 4628.03ZM2437.51 4628.03V4600.21H2424.51V4607.17C2420.17 4601.97 2413.96 4599.06 2405.86 4599.06C2389.1 4599.06 2376.09 4611.22 2376.09 4628.03C2376.09 4644.85 2389.1 4657 2405.86 4657C2414.54 4657 2420.75 4654.1 2424.51 4648.9V4655.85H2437.51V4628.03ZM2389.75 4628.03C2389.75 4618.17 2396.54 4610.07 2407.74 4610.07C2418.29 4610.07 2425.74 4617.63 2425.74 4628.03C2425.74 4637.89 2418.29 4645.99 2407.74 4645.99C2396.62 4645.39 2389.75 4637.82 2389.75 4628.03ZM2234.11 4599C2216.77 4599 2204.34 4610.61 2204.34 4627.96C2204.34 4645.39 2216.77 4656.93 2234.76 4656.93C2243.43 4656.93 2252.1 4654.64 2258.96 4649.37L2252.75 4640.66C2247.76 4644.17 2241.55 4646.47 2235.41 4646.47C2227.32 4646.47 2219.29 4642.95 2217.42 4633.16H2261.42C2261.42 4631.41 2261.42 4630.26 2261.42 4628.5C2262 4610.61 2250.8 4599 2234.11 4599ZM2234.11 4609.46C2242.2 4609.46 2247.76 4614.12 2248.99 4622.76H2217.99C2219.22 4615.27 2224.79 4609.46 2234.11 4609.46ZM2557.24 4628.03V4578.2H2544.24V4607.17C2539.9 4601.97 2533.69 4599.06 2525.6 4599.06C2508.83 4599.06 2495.83 4611.22 2495.83 4628.03C2495.83 4644.85 2508.83 4657 2525.6 4657C2534.27 4657 2540.48 4654.1 2544.24 4648.9V4655.85H2557.24V4628.03ZM2509.48 4628.03C2509.48 4618.17 2516.27 4610.07 2527.47 4610.07C2538.02 4610.07 2545.47 4617.63 2545.47 4628.03C2545.47 4637.89 2538.02 4645.99 2527.47 4645.99C2516.27 4645.39 2509.48 4637.82 2509.48 4628.03ZM2074.06 4628.03V4600.21H2061.05V4607.17C2056.71 4601.97 2050.5 4599.06 2042.41 4599.06C2025.64 4599.06 2012.64 4611.22 2012.64 4628.03C2012.64 4644.85 2025.64 4657 2042.41 4657C2051.08 4657 2057.29 4654.1 2061.05 4648.9V4655.85H2074.06V4628.03ZM2025.72 4628.03C2025.72 4618.17 2032.51 4610.07 2043.71 4610.07C2054.26 4610.07 2061.7 4617.63 2061.7 4628.03C2061.7 4637.89 2054.26 4645.99 2043.71 4645.99C2032.51 4645.39 2025.72 4637.82 2025.72 4628.03Z" fill="black"/>
<path d="M2328.4 4177.63H2133.02V4505.68H2328.4V4177.63Z" fill="#FF5A00"/>
<path d="M2146.02 4341.65C2146.02 4275.01 2179.55 4215.85 2231 4177.63C2193.14 4149.81 2145.37 4133 2093.28 4133C1969.86 4133 1870 4226.32 1870 4341.65C1870 4456.99 1969.86 4550.31 2093.28 4550.31C2145.37 4550.31 2193.14 4533.5 2231 4505.67C2179.48 4468 2146.02 4408.3 2146.02 4341.65Z" fill="#EB001B"/>
<path d="M2592 4341.65C2592 4456.99 2492.14 4550.31 2368.72 4550.31C2316.63 4550.31 2268.86 4533.5 2231 4505.67C2283.1 4467.39 2315.98 4408.3 2315.98 4341.65C2315.98 4275.01 2282.45 4215.85 2231 4177.63C2268.79 4149.81 2316.55 4133 2368.65 4133C2492.14 4133 2592 4226.93 2592 4341.65Z" fill="#F79E1B"/>
</g>
</g>
<g filter="url(#filter5_dd_1_266)">
<rect x="1641" y="2482" width="1180" height="874" rx="8" fill="white"/>
<g clip-path="url(#clip4_1_266)">
<path d="M1863.02 3118.85C1887.17 3120.15 1910.72 3107.61 1928.77 3083.85C1934.62 3075.33 1939.25 3065.15 1942.36 3053.92C1945.48 3042.69 1947.03 3030.64 1946.91 3018.5C1946.98 3007.18 1945.53 2995.95 1942.64 2985.47C1939.76 2974.98 1935.48 2965.45 1930.08 2957.43C1917.29 2939.62 1901.16 2927.96 1883.8 2923.98L1851.32 2914.65C1838.17 2910.76 1830.28 2900.84 1830.28 2887.23C1830.28 2869.14 1842.11 2856.69 1861.05 2856.69C1871.62 2856.09 1881.92 2861.68 1889.71 2872.25C1894.09 2879.31 1896.85 2888.22 1897.6 2897.73L1944.41 2882.17C1942.92 2862.44 1936.78 2844.13 1927.06 2830.44C1909.2 2806.04 1885.61 2792.92 1861.31 2793.88C1838.67 2792.82 1816.57 2804.34 1799.38 2826.16C1793.11 2834.73 1788.12 2845.14 1784.72 2856.73C1781.32 2868.32 1779.6 2880.82 1779.65 2893.45C1779.42 2904 1780.64 2914.51 1783.24 2924.34C1785.84 2934.17 1789.76 2943.11 1794.78 2950.63C1807.1 2967.52 1822.35 2979.03 1838.83 2983.88L1870.78 2995.16C1886.82 3000.61 1893.92 3009.36 1893.92 3024.92C1893.92 3044.37 1882.22 3055.45 1862.89 3055.45C1856.93 3055.88 1850.97 3054.5 1845.38 3051.39C1839.8 3048.28 1834.7 3043.51 1830.41 3037.37C1825.28 3029.73 1822.28 3019.53 1821.99 3008.78L1774 3024.34C1775.47 3045.22 1781.9 3064.65 1792.15 3079.18C1801.58 3092.32 1812.71 3102.54 1824.86 3109.22C1837.01 3115.9 1849.94 3118.91 1862.89 3118.08L1863.02 3118.85ZM2217.92 3118.08C2231.07 3118.62 2244.15 3115.3 2256.43 3108.33C2268.71 3101.35 2279.93 3090.85 2289.45 3077.43C2301.63 3060.31 2310.4 3038.58 2314.83 3014.61L2265.52 2990.3C2263.22 3002.7 2258.67 3013.93 2252.37 3022.78C2243.1 3035.69 2230.77 3042.67 2218.05 3042.23C2211.11 3042.34 2204.23 3040.42 2197.8 3036.58C2191.37 3032.74 2185.52 3027.06 2180.58 3019.86C2170.22 3002.31 2164.8 2979.55 2165.45 2956.27C2164.74 2932.69 2170.31 2909.65 2180.97 2892.09C2190.92 2877.91 2204.24 2870.08 2218.05 2870.31C2224.2 2870.02 2230.32 2871.6 2236.04 2874.94C2241.76 2878.29 2246.96 2883.33 2251.32 2889.75C2257.47 2899.01 2261.98 2910.37 2264.47 2922.82L2314.57 2897.92C2310.38 2874.76 2302.28 2853.54 2291.03 2836.27C2281.2 2822.47 2269.62 2811.69 2256.96 2804.54C2244.3 2797.4 2230.81 2794.04 2217.26 2794.65C2203.18 2794.41 2189.2 2798.28 2176.13 2806.06C2163.07 2813.84 2151.17 2825.36 2141.13 2839.97C2121.12 2871.69 2110.06 2913.51 2110.21 2956.89C2110.36 3000.27 2121.7 3041.92 2141.92 3073.35C2162.29 3102.67 2189.62 3119.01 2218.05 3118.85L2217.92 3118.08ZM2048.03 3118.85C2063.81 3119.8 2079.35 3112.96 2092.21 3099.41V3032.89C2083.94 3041.28 2074.1 3045.63 2064.07 3045.34C2060.29 3046.37 2056.4 3046.02 2052.73 3044.31C2049.07 3042.6 2045.74 3039.59 2043.04 3035.54C2040.35 3031.5 2038.36 3026.53 2037.26 3021.09C2036.16 3015.64 2035.97 3009.88 2036.72 3004.3V2719H1981.36V2803.21H2092.48V2882.75H1981.36V3024.14C1980.61 3049.08 1986.51 3073.46 1997.8 3092.02C2004.58 3101.24 2012.54 3108.36 2021.22 3112.97C2029.89 3117.58 2039.09 3119.58 2048.29 3118.85" fill="#4F008C"/>
<path d="M2368.91 3014.23V2803.27H2392.86V2819.96C2396.66 2813.09 2401.47 2807.63 2406.92 2804.01C2412.37 2800.38 2418.32 2798.68 2424.28 2799.05C2451.84 2799.05 2471.67 2831.85 2471.67 2878.83C2471.67 2925.82 2452.48 2959.58 2424.28 2959.58C2418.3 2959.9 2412.34 2958.14 2406.89 2954.45C2401.43 2950.75 2396.63 2945.22 2392.86 2938.29V3015L2368.91 3014.23ZM2392.86 2860.81V2899.16C2395.11 2907.19 2398.9 2914.06 2403.76 2918.9C2408.61 2923.75 2414.32 2926.35 2420.16 2926.4C2436.13 2926.4 2446.69 2908.56 2446.69 2879.79C2446.69 2851.03 2436.13 2833.57 2420.16 2833.57C2414.31 2833.45 2408.57 2835.96 2403.7 2840.79C2398.82 2845.62 2395.05 2852.53 2392.86 2860.62" fill="#03BB86"/>
<path d="M2487.92 2904.79C2487.55 2893.29 2490.49 2882.05 2496.09 2873.52C2501.68 2864.98 2509.5 2859.84 2517.83 2859.21L2560.78 2851.71V2844.21C2560.97 2842.42 2560.87 2840.6 2560.47 2838.87C2560.07 2837.15 2559.4 2835.58 2558.49 2834.28C2557.59 2832.97 2556.48 2831.97 2555.25 2831.35C2554.02 2830.73 2552.7 2830.51 2551.4 2830.7H2497.03V2799H2551.4C2573.15 2799 2585.24 2813.63 2585.24 2839.89V2947H2560.78V2928.24C2556.66 2935.72 2551.27 2941.69 2545.08 2945.62C2538.89 2949.54 2532.1 2951.3 2525.3 2950.75C2520.58 2951.43 2515.81 2950.74 2511.3 2948.71C2506.78 2946.68 2502.63 2943.37 2499.1 2938.98C2495.58 2934.59 2492.76 2929.23 2490.84 2923.25C2488.91 2917.26 2487.92 2910.78 2487.92 2904.23V2904.79ZM2531.55 2922.99C2537.63 2923.17 2543.62 2920.93 2548.8 2916.54C2553.99 2912.15 2558.14 2905.79 2560.78 2898.23V2879.47L2528.02 2885.85C2518.91 2887.54 2514.43 2894.1 2514.43 2904.61C2514.43 2915.11 2520.82 2923.36 2532.1 2923.36" fill="#03BB86"/>
<path d="M2605.59 2981.53H2621.63C2624.11 2981.94 2626.6 2980.77 2628.59 2978.25C2630.58 2975.73 2631.92 2972.05 2632.36 2967.94L2635.3 2954.36L2601.47 2799H2624.34L2645.32 2907.1L2665.48 2799H2688L2650.87 2977.39C2645.8 3002.01 2639.07 3015 2622.81 3015H2605.59V2981.53Z" fill="#03BB86"/>
</g>
</g>
<defs>
<filter id="filter0_dd_1_266" x="92" y="998" width="1210" height="910" filterUnits="userSpaceOnUse" color-interpolation-filters="sRGB">
<feFlood flood-opacity="0" result="BackgroundImageFix"/>
<feColorMatrix in="SourceAlpha" type="matrix" values="0 0 0 0 0 0 0 0 0 0 0 0 0 0 0 0 0 0 127 0" result="hardAlpha"/>
<feOffset dy="4"/>
<feGaussianBlur stdDeviation="3"/>
<feColorMatrix type="matrix" values="0 0 0 0 0 0 0 0 0 0 0 0 0 0 0 0 0 0 0.05 0"/>
<feBlend mode="normal" in2="BackgroundImageFix" result="effect1_dropShadow_1_266"/>
<feColorMatrix in="SourceAlpha" type="matrix" values="0 0 0 0 0 0 0 0 0 0 0 0 0 0 0 0 0 0 127 0" result="hardAlpha"/>
<feOffset dy="10"/>
<feGaussianBlur stdDeviation="7.5"/>
<feColorMatrix type="matrix" values="0 0 0 0 0 0 0 0 0 0 0 0 0 0 0 0 0 0 0.1 0"/>
<feBlend mode="normal" in2="effect1_dropShadow_1_266" result="effect2_dropShadow_1_266"/>
<feBlend mode="normal" in="SourceGraphic" in2="effect2_dropShadow_1_266" result="shape"/>
</filter>
<filter id="filter1_dd_1_266" x="1626" y="998" width="1210" height="910" filterUnits="userSpaceOnUse" color-interpolation-filters="sRGB">
<feFlood flood-opacity="0" result="BackgroundImageFix"/>
<feColorMatrix in="SourceAlpha" type="matrix" values="0 0 0 0 0 0 0 0 0 0 0 0 0 0 0 0 0 0 127 0" result="hardAlpha"/>
<feOffset dy="4"/>
<feGaussianBlur stdDeviation="3"/>
<feColorMatrix type="matrix" values="0 0 0 0 0 0 0 0 0 0 0 0 0 0 0 0 0 0 0.05 0"/>
<feBlend mode="normal" in2="BackgroundImageFix" result="effect1_dropShadow_1_266"/>
<feColorMatrix in="SourceAlpha" type="matrix" values="0 0 0 0 0 0 0 0 0 0 0 0 0 0 0 0 0 0 127 0" result="hardAlpha"/>
<feOffset dy="10"/>
<feGaussianBlur stdDeviation="7.5"/>
<feColorMatrix type="matrix" values="0 0 0 0 0 0 0 0 0 0 0 0 0 0 0 0 0 0 0.1 0"/>
<feBlend mode="normal" in2="effect1_dropShadow_1_266" result="effect2_dropShadow_1_266"/>
<feBlend mode="normal" in="SourceGraphic" in2="effect2_dropShadow_1_266" result="shape"/>
</filter>
<filter id="filter2_dd_1_266" x="92" y="2477" width="1210" height="904" filterUnits="userSpaceOnUse" color-interpolation-filters="sRGB">
<feFlood flood-opacity="0" result="BackgroundImageFix"/>
<feColorMatrix in="SourceAlpha" type="matrix" values="0 0 0 0 0 0 0 0 0 0 0 0 0 0 0 0 0 0 127 0" result="hardAlpha"/>
<feOffset dy="4"/>
<feGaussianBlur stdDeviation="3"/>
<feColorMatrix type="matrix" values="0 0 0 0 0 0 0 0 0 0 0 0 0 0 0 0 0 0 0.05 0"/>
<feBlend mode="normal" in2="BackgroundImageFix" result="effect1_dropShadow_1_266"/>
<feColorMatrix in="SourceAlpha" type="matrix" values="0 0 0 0 0 0 0 0 0 0 0 0 0 0 0 0 0 0 127 0" result="hardAlpha"/>
<feOffset dy="10"/>
<feGaussianBlur stdDeviation="7.5"/>
<feColorMatrix type="matrix" values="0 0 0 0 0 0 0 0 0 0 0 0 0 0 0 0 0 0 0.1 0"/>
<feBlend mode="normal" in2="effect1_dropShadow_1_266" result="effect2_dropShadow_1_266"/>
<feBlend mode="normal" in="SourceGraphic" in2="effect2_dropShadow_1_266" result="shape"/>
</filter>
<filter id="filter3_dd_1_266" x="92" y="3953" width="1210" height="904" filterUnits="userSpaceOnUse" color-interpolation-filters="sRGB">
<feFlood flood-opacity="0" result="BackgroundImageFix"/>
<feColorMatrix in="SourceAlpha" type="matrix" values="0 0 0 0 0 0 0 0 0 0 0 0 0 0 0 0 0 0 127 0" result="hardAlpha"/>
<feOffset dy="4"/>
<feGaussianBlur stdDeviation="3"/>
<feColorMatrix type="matrix" values="0 0 0 0 0 0 0 0 0 0 0 0 0 0 0 0 0 0 0.05 0"/>
<feBlend mode="normal" in2="BackgroundImageFix" result="effect1_dropShadow_1_266"/>
<feColorMatrix in="SourceAlpha" type="matrix" values="0 0 0 0 0 0 0 0 0 0 0 0 0 0 0 0 0 0 127 0" result="hardAlpha"/>
<feOffset dy="10"/>
<feGaussianBlur stdDeviation="7.5"/>
<feColorMatrix type="matrix" values="0 0 0 0 0 0 0 0 0 0 0 0 0 0 0 0 0 0 0.1 0"/>
<feBlend mode="normal" in2="effect1_dropShadow_1_266" result="effect2_dropShadow_1_266"/>
<feBlend mode="normal" in="SourceGraphic" in2="effect2_dropShadow_1_266" result="shape"/>
</filter>
<filter id="filter4_dd_1_266" x="1626" y="3953" width="1210" height="904" filterUnits="userSpaceOnUse" color-interpolation-filters="sRGB">
<feFlood flood-opacity="0" result="BackgroundImageFix"/>
<feColorMatrix in="SourceAlpha" type="matrix" values="0 0 0 0 0 0 0 0 0 0 0 0 0 0 0 0 0 0 127 0" result="hardAlpha"/>
<feOffset dy="4"/>
<feGaussianBlur stdDeviation="3"/>
<feColorMatrix type="matrix" values="0 0 0 0 0 0 0 0 0 0 0 0 0 0 0 0 0 0 0.05 0"/>
<feBlend mode="normal" in2="BackgroundImageFix" result="effect1_dropShadow_1_266"/>
<feColorMatrix in="SourceAlpha" type="matrix" values="0 0 0 0 0 0 0 0 0 0 0 0 0 0 0 0 0 0 127 0" result="hardAlpha"/>
<feOffset dy="10"/>
<feGaussianBlur stdDeviation="7.5"/>
<feColorMatrix type="matrix" values="0 0 0 0 0 0 0 0 0 0 0 0 0 0 0 0 0 0 0.1 0"/>
<feBlend mode="normal" in2="effect1_dropShadow_1_266" result="effect2_dropShadow_1_266"/>
<feBlend mode="normal" in="SourceGraphic" in2="effect2_dropShadow_1_266" result="shape"/>
</filter>
<filter id="filter5_dd_1_266" x="1626" y="2477" width="1210" height="904" filterUnits="userSpaceOnUse" color-interpolation-filters="sRGB">
<feFlood flood-opacity="0" result="BackgroundImageFix"/>
<feColorMatrix in="SourceAlpha" type="matrix" values="0 0 0 0 0 0 0 0 0 0 0 0 0 0 0 0 0 0 127 0" result="hardAlpha"/>
<feOffset dy="4"/>
<feGaussianBlur stdDeviation="3"/>
<feColorMatrix type="matrix" values="0 0 0 0 0 0 0 0 0 0 0 0 0 0 0 0 0 0 0.05 0"/>
<feBlend mode="normal" in2="BackgroundImageFix" result="effect1_dropShadow_1_266"/>
<feColorMatrix in="SourceAlpha" type="matrix" values="0 0 0 0 0 0 0 0 0 0 0 0 0 0 0 0 0 0 127 0" result="hardAlpha"/>
<feOffset dy="10"/>
<feGaussianBlur stdDeviation="7.5"/>
<feColorMatrix type="matrix" values="0 0 0 0 0 0 0 0 0 0 0 0 0 0 0 0 0 0 0.1 0"/>
<feBlend mode="normal" in2="effect1_dropShadow_1_266" result="effect2_dropShadow_1_266"/>
<feBlend mode="normal" in="SourceGraphic" in2="effect2_dropShadow_1_266" result="shape"/>
</filter>
<clipPath id="clip0_1_266">
<rect width="938" height="324" fill="white" transform="translate(228 1281)"/>
</clipPath>
<clipPath id="clip1_1_266">
<rect width="968" height="446" fill="white" transform="translate(213 2696)"/>
</clipPath>
<clipPath id="clip2_1_266">
<rect width="890" height="424" fill="white" transform="translate(252 4183)"/>
</clipPath>
<clipPath id="clip3_1_266">
<rect width="722" height="524" fill="white" transform="translate(1870 4133)"/>
</clipPath>
<clipPath id="clip4_1_266">
<rect width="914" height="400" fill="white" transform="translate(1774 2719)"/>
</clipPath>
</defs>
</svg>
